<svg height="512pt" viewBox="0 0 512 512" width="512pt" xmlns="http://www.w3.org/2000/svg"><path d="m512 256c0 141.386719-114.613281 256-256 256s-256-114.613281-256-256 114.613281-256 256-256 256 114.613281 256 256zm0 0" fill="#4a7aff"/><path d="m512 256c0-.183594-.007812-.363281-.007812-.546875l-109.992188-109.992187-292 67.496093 102.316406 102.3125-102.316406 92.789063 99.765625 99.765625c14.996094 2.738281 30.449219 4.175781 46.234375 4.175781 141.386719 0 256-114.613281 256-256zm0 0" fill="#0053bf"/><path d="m256 280.578125-127.136719-127.136719 69.613281-69.613281c31.769532-31.769531 83.277344-31.769531 115.046876 0l69.613281 69.613281zm0 0" fill="#fcf7ca"/><path d="m383.136719 153.441406-69.613281-69.613281c-15.988282-15.988281-36.972657-23.921875-57.929688-23.816406v220.160156l.40625.40625zm0 0" fill="#ffe89c"/><path d="m380.597656 339.023438c8.917969-57.523438 10.765625-115.042969 5.558594-172.566407h-260.3125c-5.207031 57.523438-3.359375 115.046875 5.558594 172.566407-12.917969 8.800781-21.402344 23.625-21.402344 40.4375v28.597656h28.601562c15.269532 0 28.902344-7 37.871094-17.96875 53.019532 12.355468 106.035156 12.355468 159.054688 0 8.96875 10.96875 22.601562 17.96875 37.871094 17.96875h28.601562v-28.597656c0-16.8125-8.484375-31.636719-21.402344-40.4375zm0 0" fill="#fa0"/><path d="m380.597656 339.023438c8.917969-57.523438 10.765625-115.042969 5.558594-172.566407h-130.5625v232.898438c26.644531.03125 53.289062-3.054688 79.933594-9.265625 8.96875 10.96875 22.601562 17.96875 37.871094 17.96875h28.601562v-28.597656c0-16.8125-8.484375-31.636719-21.402344-40.4375zm0 0" fill="#ff9500"/><path d="m110 145.460938h292v67.496093h-292zm0 0" fill="#ffde55"/><path d="m255.59375 145.460938h146.40625v67.496093h-146.40625zm0 0" fill="#ffce00"/></svg>